<svg id="Warstwa_1-2" xmlns="http://www.w3.org/2000/svg" width="127.699" height="35" viewBox="0 0 127.699 35">
  <g id="b">
    <g id="c" transform="translate(38.816 29.435)">
      <path id="Path_2484" data-name="Path 2484" d="M666.1,690.77h1.139a.839.839,0,0,0,.925.7c.524,0,.844-.266.844-.648,0-.3-.229-.507-.712-.648l-.688-.187c-1.237-.312-1.457-1.022-1.457-1.507a1.764,1.764,0,0,1,1.949-1.623,1.68,1.68,0,0,1,1.884,1.64h-1.138a.686.686,0,0,0-.77-.679.707.707,0,0,0-.778.64c0,.132.041.406.63.569l.631.171c.851.242,1.6.656,1.6,1.569,0,1.069-.959,1.654-2.023,1.654-1.2,0-2.031-.71-2.031-1.654Z" transform="translate(-666.1 -686.86)" fill="#00214a"/>
      <path id="Path_2485" data-name="Path 2485" d="M741.586,693.388h-1.163l-.409-3.333-1.376,2.724h-.892l-1.393-2.724-.41,3.333H734.78l.7-5.378h.966l1.744,3.528,1.728-3.528h.983Z" transform="translate(-728.933 -687.917)" fill="#00214a"/>
      <path id="Path_2486" data-name="Path 2486" d="M835.524,693.388l-.459-1.287h-2.113l-.45,1.287H831.29l2.1-5.378h1.228l2.1,5.378Zm-2.237-2.232h1.442l-.721-2.037Z" transform="translate(-817.227 -687.917)" fill="#00214a"/>
      <path id="Path_2487" data-name="Path 2487" d="M918.046,693.388,916.7,691.46h-.385v1.928H915.18V688.01h2.252a1.723,1.723,0,0,1,.491,3.4l1.458,1.975Zm-1.728-4.417v1.616h.908c.639,0,.909-.367.909-.8a.786.786,0,0,0-.819-.82h-1Z" transform="translate(-893.975 -687.917)" fill="#00214a"/>
      <path id="Path_2488" data-name="Path 2488" d="M985.621,688.01v.96h-1.556v4.417h-1.138V688.97H981.37v-.96Z" transform="translate(-954.53 -687.917)" fill="#00214a"/>
      <path id="Path_2489" data-name="Path 2489" d="M1054.958,692.428h2.473v.96h-3.611V688.01h3.538v.96h-2.4v1.28h2.1v.976h-2.1Z" transform="translate(-1020.812 -687.917)" fill="#00214a"/>
      <path id="Path_2490" data-name="Path 2490" d="M1124.416,693.388l-1.344-1.928h-.385v1.928h-1.138V688.01h2.252a1.723,1.723,0,0,1,.491,3.4l1.458,1.975Zm-1.728-4.417v1.616h.908c.64,0,.909-.367.909-.8a.786.786,0,0,0-.819-.82h-1Z" transform="translate(-1082.776 -687.917)" fill="#00214a"/>
      <path id="Path_2491" data-name="Path 2491" d="M1225.571,688.01v.96h-1.556v4.417h-1.138V688.97h-1.557v-.96Z" transform="translate(-1174.052 -687.917)" fill="#00214a"/>
      <path id="Path_2492" data-name="Path 2492" d="M1296.626,693.388l-1.343-1.928h-.385v1.928h-1.138V688.01h2.252a1.723,1.723,0,0,1,.491,3.4l1.458,1.975Zm-1.728-4.417v1.616h.909c.639,0,.909-.367.909-.8a.786.786,0,0,0-.819-.82h-1Z" transform="translate(-1240.326 -687.917)" fill="#00214a"/>
      <path id="Path_2493" data-name="Path 2493" d="M1363.044,693.388l-.459-1.287h-2.113l-.45,1.287h-1.211l2.1-5.378h1.229l2.1,5.378Zm-2.236-2.232h1.442l-.721-2.037Z" transform="translate(-1299.838 -687.917)" fill="#00214a"/>
      <path id="Path_2494" data-name="Path 2494" d="M1444.911,688.01a2.692,2.692,0,0,1,0,5.378H1442.7V688.01Zm0,4.417c.942,0,1.425-.8,1.425-1.717s-.483-1.74-1.425-1.74h-1.073v3.458Z" transform="translate(-1376.586 -687.917)" fill="#00214a"/>
      <path id="Path_2495" data-name="Path 2495" d="M1523.71,693.388V688.01h1.138v5.378Z" transform="translate(-1450.7 -687.917)" fill="#00214a"/>
      <path id="Path_2496" data-name="Path 2496" d="M1568.82,688.01h1.14v5.378h-1.024l-2.048-3.372v3.372h-1.138V688.01h1.057l2.014,3.333Z" transform="translate(-1489.16 -687.917)" fill="#00214a"/>
      <path id="Path_2497" data-name="Path 2497" d="M1639.812,689.656a2.909,2.909,0,0,1,4.971-1.927l-.828.678a1.751,1.751,0,0,0-3.006,1.248,1.781,1.781,0,0,0,1.777,1.8c.737,0,1.466-.421,1.466-1.046h-1.6v-.882h2.842c0,1.99-1.155,2.9-2.686,2.9a2.821,2.821,0,0,1-2.94-2.779Z" transform="translate(-1556.916 -686.869)" fill="#00214a"/>
    </g>
    <g id="d" transform="translate(37.801 7.615)">
      <path id="Path_2498" data-name="Path 2498" d="M662.794,417.9a8.315,8.315,0,1,0,8.59,8.3A8.47,8.47,0,0,0,662.794,417.9Zm-.025,13a4.7,4.7,0,1,1,4.561-4.706A4.542,4.542,0,0,1,662.769,430.9Z" transform="translate(-654.18 -417.9)" fill="#00214a"/>
      <path id="Path_2499" data-name="Path 2499" d="M1117.874,421.23v7.906l-6.117-7.906h-3.847v16.079h4.3v-8.024l6.259,8.024h3.7V421.23Z" transform="translate(-1069.283 -420.96)" fill="#00214a"/>
      <path id="Path_2500" data-name="Path 2500" d="M1325.254,421.23h-7.063v16.079h7.063c4.615,0,7.716-3.218,7.716-8.006s-3.1-8.073-7.716-8.073Zm-2.763,3.648h2.763c2.33,0,3.391,2.294,3.391,4.425s-1.061,4.357-3.391,4.357h-2.763v-8.783Z" transform="translate(-1261.661 -420.96)" fill="#00214a"/>
      <path id="Path_2501" data-name="Path 2501" d="M879.6,437.309h4.61l-6.882-16.079-2.139.007-2.139-.007-6.882,16.079h4.61l1.382-3.639h6.059l1.383,3.639Zm-6.079-7.229,1.667-4.388,1.667,4.388h-3.333Z" transform="translate(-848.123 -420.96)" fill="#00214a"/>
      <path id="Path_2502" data-name="Path 2502" d="M1511.634,437.309h4.61l-6.882-16.079-2.14.007-2.139-.007-6.882,16.079h4.61l1.382-3.639h6.059Zm-6.079-7.229,1.667-4.388,1.667,4.388h-3.333Z" transform="translate(-1426.346 -420.96)" fill="#00214a"/>
    </g>
    <g id="e">
      <path id="Path_2503" data-name="Path 2503" d="M217.442,487.278h-4.82l-2.471-8.948h4.82Z" transform="translate(-210.15 -465.813)" fill="#00214a"/>
      <path id="Path_2504" data-name="Path 2504" d="M484.85,337.82h-4.82l3.875-13.78h4.82Z" transform="translate(-457.054 -324.04)" fill="#fff"/>
      <path id="Path_2505" data-name="Path 2505" d="M353.578,408.97l-4.076,14.5-2.382,8.471h4.82L358.4,408.97Z" transform="translate(-335.459 -402.08)" fill="#fff"/>
      <path id="Path_2506" data-name="Path 2506" d="M305.07,520.19h-4.82l3.885,13.944H309Z" transform="translate(-292.58 -504.277)" fill="#00214a"/>
    </g>
  </g>
</svg>
