<svg fill="none" height="61" viewBox="0 0 199 61" width="199" xmlns="http://www.w3.org/2000/svg" xmlns:xlink="http://www.w3.org/1999/xlink"><linearGradient id="a" gradientUnits="userSpaceOnUse" x1="62.7178" x2="86.5673" y1="30.5" y2="30.5"><stop offset=".45" stop-color="#fff"/><stop offset=".87" stop-color="#fff" stop-opacity="0"/></linearGradient><path clip-rule="evenodd" d="m86.5673 10.5904v-4.41505c-13.1752 0-23.8495 10.89785-23.8495 24.32465 0 13.4267 10.6883 24.3246 23.8495 24.3246v-4.4151c-10.7861 0-19.5183-8.9139-19.5183-19.9095 0-10.9957 8.7322-19.9096 19.5183-19.9096z" fill="url(#a)" fill-rule="evenodd" opacity=".25"/><g fill="#fff"><path d="m146.509 0h-50.2284-4.7923v4.89007 10.05963h4.7923v-10.05963h50.2284v10.05963h4.792v-10.05963-4.89007z"/><path d="m146.509 46.0509v10.0596h-50.2284v-10.0596h-4.7923v14.9497h4.0238.7685 50.2284 2.403 2.389v-14.9497z"/><path d="m6.66447 39.9031v-16.8218h-6.66447v-1.8862h15.4806v1.8862h-6.6645v16.8218h-2.1656z"/><path d="m18.4688 39.9031v-18.708h7.2652c1.984 0 3.4929.4751 4.5268 1.4112 1.0618.9361 1.5928 2.2773 1.5928 4.0098 0 1.3832-.3773 2.5149-1.1178 3.3951-.7265.8802-1.7744 1.4531-3.1296 1.7185.7964.2795 1.481.9781 2.0538 2.0678l3.2275 6.1056h-2.3473l-3.1715-5.9938c-.4052-.7405-.8523-1.2435-1.3832-1.5089-.517-.2655-1.2016-.3912-2.0538-.3912h-3.3253v7.9079h-2.1376zm2.1376-9.6404h4.8202c2.8782 0 4.3173-1.2155 4.3173-3.6605 0-2.4451-1.4391-3.6047-4.3173-3.6047h-4.8202z"/><path d="m34.4814 39.9031 8.0896-18.708h1.8163l8.0896 18.708h-2.2075l-2.0259-4.7783h-9.5566l-1.9979 4.7783zm8.9698-16.1651-3.9819 9.5566h8.0197l-3.9819-9.5566z"/><path d="m55.8604 39.9031v-18.708h6.1894c2.962 0 5.2533.8104 6.874 2.4171 1.6068 1.5928 2.4171 3.8981 2.4171 6.9299 0 3.0319-.8103 5.3372-2.4171 6.9579-1.6067 1.6068-3.8981 2.4171-6.874 2.4171h-6.1894zm2.1376-1.8582h3.8981c4.7923 0 7.1814-2.5009 7.1814-7.5167s-2.3891-7.4888-7.1814-7.4888h-3.8981v14.9915z"/><path d="m75.8232 39.9031v-18.708h11.5825v1.8303h-9.5007v6.4689h8.9558v1.8303h-8.9558v6.7343h9.5007v1.8303h-11.5825z"/><path d="m91.4883 39.9031v-18.708h4.7923v14.6563h8.1734v4.0657h-12.9657z"/><path d="m115.192 40.196c-1.858 0-3.493-.3912-4.89-1.1876-1.383-.8103-2.473-1.942-3.255-3.3951-.783-1.453-1.174-3.1436-1.174-5.0717s.377-3.6326 1.146-5.0717c.782-1.453 1.872-2.5708 3.283-3.3672 1.411-.7963 3.032-1.1875 4.89-1.1875s3.479.3912 4.862 1.1875c1.411.7964 2.501 1.9142 3.284 3.3672.782 1.4391 1.173 3.1297 1.173 5.0717 0 1.9421-.391 3.6187-1.173 5.0717-.783 1.4531-1.873 2.5848-3.284 3.3951-1.383.7964-3.004 1.1876-4.862 1.1876zm0-4.0937c1.355 0 2.417-.489 3.172-1.453.782-.992 1.173-2.3612 1.173-4.1077 0-1.7464-.377-3.1157-1.145-4.0937-.769-.978-1.831-1.453-3.2-1.453s-2.431.489-3.199 1.453c-.769.978-1.146 2.3333-1.146 4.0937s.377 3.1297 1.146 4.1077c.768.978 1.83 1.453 3.199 1.453z"/><path d="m137.257 40.196c-2.025 0-3.772-.3912-5.225-1.1876s-2.571-1.9141-3.353-3.3671c-.769-1.4531-1.146-3.1437-1.146-5.0997s.377-3.6326 1.146-5.0717c.782-1.453 1.9-2.5708 3.353-3.3672 1.453-.7963 3.2-1.1875 5.225-1.1875 1.216 0 2.39.1956 3.507.5868 1.132.3772 2.04.8662 2.739 1.481l-1.425 3.8422c-.769-.5729-1.523-.9781-2.292-1.2435-.768-.2794-1.551-.4192-2.347-.4192-1.607 0-2.822.4751-3.647 1.4112-.81.9221-1.229 2.2494-1.229 3.9819s.405 3.1017 1.229 4.0378c.811.9221 2.026 1.3832 3.647 1.3832.796 0 1.579-.1258 2.347-.3912.769-.2795 1.523-.7126 2.292-1.2714l1.425 3.8422c-.699.6147-1.607 1.1177-2.739 1.5089-1.131.3772-2.305.5589-3.507.5589z"/><path d="m146.504 39.9031v-18.708h4.792v8.0197h.056l7.126-8.0197h5.672l-8.173 8.886 8.453 9.822h-5.701l-7.391-8.4388h-.055v8.4388h-4.793z"/><path d="m165.689 39.9031v-18.708h12.966v3.7724h-8.383v3.5627h7.782v3.7724h-7.782v3.8422h8.383v3.7723h-12.966z"/><path d="m182.331 39.9031v-18.708h8.816c2.082 0 3.689.517 4.82 1.5649 1.146 1.0199 1.719 2.459 1.719 4.3032 0 1.3972-.349 2.5708-1.048 3.5348-.671.9361-1.663 1.5928-2.962 1.97.978.2655 1.746.9501 2.347 2.0399l2.864 5.3092h-5.253l-3.171-5.9379c-.21-.3773-.475-.6427-.811-.7964-.307-.1537-.67-.2375-1.09-.2375h-1.425v6.9858h-4.792zm4.778-10.4368h3.172c1.886 0 2.836-.7544 2.836-2.2773 0-1.523-.95-2.2495-2.836-2.2495h-3.172v4.5408z"/></g></svg>